<?xml version="1.0" encoding="UTF-8" standalone="no"?>
<!DOCTYPE svg PUBLIC "-//W3C//DTD SVG 1.1//EN" "http://www.w3.org/Graphics/SVG/1.1/DTD/svg11.dtd">
<svg width="100%" height="100%" viewBox="0 0 43 43" version="1.1" xmlns="http://www.w3.org/2000/svg" xmlns:xlink="http://www.w3.org/1999/xlink" xml:space="preserve" xmlns:serif="http://www.serif.com/" style="fill-rule:evenodd;clip-rule:evenodd;stroke-linejoin:round;stroke-miterlimit:2;">
    <g transform="matrix(1,0,0,1,-78.99072,-78.957647)">
        <g id="Background" transform="matrix(1,0,0,1,77,77)">
            <path d="M1.998,35.488C1.97,31.986 2.034,32.005 2.034,28.5C2.034,8.251 1.914,8.112 2.858,6.772C4.173,4.902 4.999,4.283 5.228,4.112C6.248,3.348 6.254,3.359 6.341,3.29C8.601,1.492 10.277,2.034 17.5,2.034C37.752,2.034 37.892,1.915 39.227,2.858C41.057,4.149 41.706,5.004 41.878,5.23C43.291,7.089 44.182,6.984 44.034,14.501C43.676,32.652 44.554,37.202 43.138,39.227C41.866,41.045 40.996,41.706 40.77,41.878C38.759,43.406 38.825,44.178 31.499,44.034C19.059,43.79 12.865,44.121 9.468,43.894C8.93,43.858 6.218,43.677 3.743,40.339C1.51,37.327 2.213,36.827 1.998,35.488Z" style="fill:rgb(218,253,196);fill-opacity:1;"/>
            <path d="M11.96,18.504C12.006,19.702 11.991,19.691 12.041,24.507C12.112,31.459 18.016,30.186 19.233,29.165C22.353,26.546 18.236,24.794 19.016,22.328C19.365,21.223 20.411,20.81 24.528,21.046C24.762,21.059 26.693,21.17 27.015,22.582C27.219,23.472 26.271,25.117 26.157,25.316C23.91,29.219 28.707,30.285 30.595,29.846C34.735,28.883 33.958,24.167 33.974,18.478C34.198,16.456 34.151,16.473 34.191,14.444C34.252,11.336 37.246,12.654 37.574,13.464C37.907,14.282 37.903,14.312 37.794,24.503C37.715,31.952 31.904,33.84 29.497,33.84C24.743,33.841 24.555,30.196 21.372,32.291C16.167,35.716 8.902,33.109 8.25,25.52C8.152,24.388 8.205,14.527 8.212,14.467C8.526,11.616 11.172,12.73 11.287,12.809C11.971,13.284 11.588,13.787 11.96,18.504Z" style="fill:rgb(89,0,176);"/>
            <path d="M31.513,16.532C30.84,16.514 30.842,15.735 29.504,15.478C26.192,14.842 24.493,17.684 24.324,15.54C24.075,12.377 29.234,11.145 31.346,13.652C31.524,13.863 31.61,14.139 31.764,14.369C31.863,14.517 32.123,14.606 32.102,14.784C32.032,15.395 31.584,15.921 31.513,16.532Z" style="fill:rgb(89,1,176);"/>
            <path d="M31.513,16.532C30.84,16.514 30.842,15.735 29.504,15.478C26.192,14.842 24.493,17.684 24.324,15.54C24.075,12.377 29.234,11.145 31.346,13.652C31.524,13.863 31.61,14.139 31.764,14.369C31.863,14.517 32.123,14.606 32.102,14.784C32.032,15.395 31.584,15.921 31.513,16.532Z" style="fill:rgb(89,1,176);"/>
            <g transform="matrix(-1,0,0,1,46.001388,-0.011776)">
                <path d="M31.513,16.532C30.84,16.514 30.842,15.735 29.504,15.478C26.192,14.842 24.493,17.684 24.324,15.54C24.075,12.377 29.234,11.145 31.346,13.652C31.524,13.863 31.61,14.139 31.764,14.369C31.863,14.517 32.123,14.606 32.102,14.784C32.032,15.395 31.584,15.921 31.513,16.532Z" style="fill:rgb(89,1,176);"/>
            </g>
        </g>
    </g>
</svg>
